<svg xmlns="http://www.w3.org/2000/svg" viewBox="0 0 1000 1000"><rect x="0" y="0" width="1000" height="1000" fill="#EDEBE4"/><path d="M 724.2 431.2 L 722.2 492.3 L 710.3 552.0 L 690.1 603.1 L 681.6 665.9 L 643.6 704.3 L 609.4 748.3 L 576.4 800.1 L 529.3 805.0 L 486.4 813.2 L 441.4 816.2 L 396.7 825.4 L 350.5 807.8 L 309.9 781.5 L 274.9 749.4 L 243.8 704.0 L 202.0 664.5 L 188.4 609.6 L 176.0 548.5 L 162.1 492.7 L 147.0 431.2 L 161.3 371.5 L 159.6 307.4 L 189.8 258.8 L 203.0 194.8 L 242.3 164.0 L 272.5 119.1 L 315.2 92.6 L 352.0 54.1 L 395.0 37.8 L 441.4 55.2 L 486.9 36.3 L 528.8 62.4 L 568.2 96.0 L 608.1 121.9 L 641.9 159.3 L 673.1 197.7 L 702.8 246.8 L 708.9 310.9 L 723.7 369.1 L 732.0 431.2 Z" fill="none" stroke="#111" stroke-width="1.55" opacity="0.75"/><line x1="484.6" y1="76.5" x2="569.2" y2="76.8" stroke="#111" stroke-width="0.7" opacity="0.06"/><line x1="484.6" y1="104.9" x2="576.1" y2="105.0" stroke="#111" stroke-width="0.7" opacity="0.09"/><line x1="484.6" y1="133.2" x2="588.9" y2="130.6" stroke="#111" stroke-width="0.7" opacity="0.11"/><line x1="484.6" y1="161.6" x2="611.0" y2="159.6" stroke="#111" stroke-width="0.7" opacity="0.13"/><line x1="484.6" y1="190.0" x2="629.4" y2="189.9" stroke="#111" stroke-width="0.7" opacity="0.16"/><line x1="484.6" y1="218.4" x2="654.8" y2="218.2" stroke="#111" stroke-width="0.7" opacity="0.18"/><line x1="484.6" y1="246.8" x2="668.5" y2="246.1" stroke="#111" stroke-width="0.7" opacity="0.20"/><line x1="484.6" y1="275.1" x2="660.0" y2="272.3" stroke="#111" stroke-width="0.7" opacity="0.21"/><line x1="484.6" y1="303.5" x2="690.1" y2="304.5" stroke="#111" stroke-width="0.7" opacity="0.23"/><line x1="484.6" y1="331.9" x2="678.3" y2="332.5" stroke="#111" stroke-width="0.7" opacity="0.24"/><line x1="484.6" y1="360.3" x2="674.3" y2="358.1" stroke="#111" stroke-width="0.7" opacity="0.25"/><line x1="484.6" y1="388.7" x2="700.6" y2="388.5" stroke="#111" stroke-width="0.7" opacity="0.26"/><line x1="484.6" y1="417.0" x2="685.2" y2="418.7" stroke="#111" stroke-width="0.7" opacity="0.26"/><line x1="484.6" y1="445.4" x2="701.8" y2="443.5" stroke="#111" stroke-width="0.7" opacity="0.26"/><line x1="484.6" y1="473.8" x2="711.1" y2="473.9" stroke="#111" stroke-width="0.7" opacity="0.26"/><line x1="484.6" y1="502.2" x2="707.2" y2="500.6" stroke="#111" stroke-width="0.7" opacity="0.25"/><line x1="484.6" y1="530.6" x2="675.9" y2="530.2" stroke="#111" stroke-width="0.7" opacity="0.24"/><line x1="484.6" y1="558.9" x2="684.6" y2="557.6" stroke="#111" stroke-width="0.7" opacity="0.23"/><line x1="484.6" y1="587.3" x2="658.8" y2="589.2" stroke="#111" stroke-width="0.7" opacity="0.21"/><line x1="484.6" y1="615.7" x2="636.4" y2="615.6" stroke="#111" stroke-width="0.7" opacity="0.20"/><line x1="484.6" y1="644.1" x2="624.5" y2="646.7" stroke="#111" stroke-width="0.7" opacity="0.18"/><line x1="484.6" y1="672.5" x2="612.5" y2="672.6" stroke="#111" stroke-width="0.7" opacity="0.16"/><line x1="484.6" y1="700.8" x2="614.4" y2="698.7" stroke="#111" stroke-width="0.7" opacity="0.13"/><line x1="484.6" y1="729.2" x2="587.6" y2="729.6" stroke="#111" stroke-width="0.7" opacity="0.11"/><line x1="484.6" y1="757.6" x2="585.8" y2="760.2" stroke="#111" stroke-width="0.7" opacity="0.09"/><line x1="484.6" y1="786.0" x2="569.7" y2="787.1" stroke="#111" stroke-width="0.7" opacity="0.06"/><line x1="470.2" y1="155.3" x2="565.8" y2="173.3" stroke="#111" stroke-width="0.5" opacity="0.12"/><line x1="470.2" y1="190.1" x2="554.5" y2="208.1" stroke="#111" stroke-width="0.5" opacity="0.12"/><line x1="470.2" y1="224.9" x2="545.1" y2="242.9" stroke="#111" stroke-width="0.5" opacity="0.12"/><line x1="470.2" y1="259.6" x2="557.5" y2="277.6" stroke="#111" stroke-width="0.5" opacity="0.12"/><line x1="470.2" y1="294.4" x2="561.6" y2="312.4" stroke="#111" stroke-width="0.5" opacity="0.12"/><line x1="470.2" y1="329.2" x2="551.2" y2="347.2" stroke="#111" stroke-width="0.5" opacity="0.12"/><line x1="470.2" y1="364.0" x2="553.4" y2="382.0" stroke="#111" stroke-width="0.5" opacity="0.12"/><line x1="470.2" y1="398.8" x2="542.0" y2="416.8" stroke="#111" stroke-width="0.5" opacity="0.12"/><line x1="470.2" y1="433.5" x2="567.9" y2="451.5" stroke="#111" stroke-width="0.5" opacity="0.12"/><line x1="470.2" y1="468.3" x2="542.1" y2="486.3" stroke="#111" stroke-width="0.5" opacity="0.12"/><line x1="470.2" y1="503.1" x2="565.2" y2="521.1" stroke="#111" stroke-width="0.5" opacity="0.12"/><line x1="470.2" y1="537.9" x2="561.9" y2="555.9" stroke="#111" stroke-width="0.5" opacity="0.12"/><line x1="470.2" y1="572.7" x2="576.2" y2="590.7" stroke="#111" stroke-width="0.5" opacity="0.12"/><line x1="470.2" y1="607.4" x2="537.2" y2="625.4" stroke="#111" stroke-width="0.5" opacity="0.12"/><line x1="470.2" y1="642.2" x2="569.8" y2="660.2" stroke="#111" stroke-width="0.5" opacity="0.12"/><line x1="470.2" y1="677.0" x2="563.5" y2="695.0" stroke="#111" stroke-width="0.5" opacity="0.12"/><line x1="470.2" y1="711.8" x2="557.2" y2="729.8" stroke="#111" stroke-width="0.5" opacity="0.12"/><line x1="470.2" y1="746.6" x2="579.7" y2="764.6" stroke="#111" stroke-width="0.5" opacity="0.12"/><path d="M 268.5 726.9 Q 441.4 1022.5 599.9 746.6" fill="none" stroke="#111" stroke-width="1.1" opacity="0.5"/><ellipse cx="349.2" cy="411.5" rx="37.5" ry="19.7" fill="none" stroke="#111" stroke-width="1" opacity="0.7"/><circle cx="347.2" cy="411.5" r="11.0" fill="#111" opacity="0.85"/><line x1="395.3" y1="364.2" x2="334.8" y2="352.4" stroke="#111" stroke-width="1.6" opacity="0.55"/><ellipse cx="533.6" cy="411.5" rx="37.5" ry="19.7" fill="none" stroke="#111" stroke-width="1" opacity="0.7"/><circle cx="535.6" cy="411.5" r="11.0" fill="#111" opacity="0.85"/><line x1="487.5" y1="364.2" x2="548.0" y2="352.4" stroke="#111" stroke-width="1.6" opacity="0.55"/><path d="M 438.4 431.2 Q 418.4 549.5 464.5 581.0" fill="none" stroke="#111" stroke-width="0.9" opacity="0.4"/><path d="M 378.0 659.8 Q 441.4 665.5 504.8 659.8" fill="none" stroke="#111" stroke-width="1.3" opacity="0.6"/><path d="M 671.0 298.8 Q 682.0 274.8 684.3 250.8" fill="none" stroke="#111" stroke-width="0.70" opacity="0.53"/><path d="M 236.9 206.8 Q 224.0 174.7 222.2 142.6" fill="none" stroke="#111" stroke-width="0.69" opacity="0.56"/><path d="M 535.8 109.2 Q 528.1 76.9 543.2 44.6" fill="none" stroke="#111" stroke-width="1.15" opacity="0.43"/><path d="M 462.0 93.3 Q 465.7 62.7 463.3 32.0" fill="none" stroke="#111" stroke-width="1.06" opacity="0.39"/><path d="M 509.0 95.7 Q 514.7 73.8 512.5 52.0" fill="none" stroke="#111" stroke-width="1.25" opacity="0.40"/><path d="M 232.2 219.1 Q 233.4 206.2 225.7 193.3" fill="none" stroke="#111" stroke-width="0.63" opacity="0.54"/><path d="M 536.2 109.7 Q 523.0 75.5 543.9 41.3" fill="none" stroke="#111" stroke-width="0.67" opacity="0.35"/><path d="M 295.3 149.0 Q 287.9 119.5 285.6 90.0" fill="none" stroke="#111" stroke-width="0.98" opacity="0.41"/><path d="M 392.7 84.6 Q 382.2 60.2 390.0 35.9" fill="none" stroke="#111" stroke-width="1.11" opacity="0.45"/><path d="M 405.1 84.8 Q 411.0 69.3 403.9 53.7" fill="none" stroke="#111" stroke-width="1.24" opacity="0.37"/><path d="M 186.2 296.5 Q 197.2 271.2 172.2 245.8" fill="none" stroke="#111" stroke-width="0.73" opacity="0.39"/><path d="M 652.2 173.7 Q 663.4 146.4 664.2 119.1" fill="none" stroke="#111" stroke-width="1.00" opacity="0.34"/><path d="M 662.1 264.7 Q 669.3 251.6 669.0 238.5" fill="none" stroke="#111" stroke-width="0.99" opacity="0.60"/><path d="M 231.0 175.2 Q 220.5 146.8 218.4 118.3" fill="none" stroke="#111" stroke-width="0.70" opacity="0.48"/><path d="M 585.7 111.4 Q 586.3 83.6 595.1 55.7" fill="none" stroke="#111" stroke-width="1.26" opacity="0.50"/><path d="M 199.8 294.9 Q 210.7 265.3 183.4 235.7" fill="none" stroke="#111" stroke-width="0.92" opacity="0.32"/><path d="M 384.5 57.9 Q 372.0 41.3 382.4 24.6" fill="none" stroke="#111" stroke-width="0.83" opacity="0.46"/><path d="M 693.0 324.7 Q 682.0 310.8 700.9 296.9" fill="none" stroke="#111" stroke-width="0.86" opacity="0.55"/><path d="M 592.7 130.6 Q 595.1 116.4 597.2 102.1" fill="none" stroke="#111" stroke-width="0.76" opacity="0.46"/><path d="M 589.9 120.2 Q 588.0 104.4 595.4 88.7" fill="none" stroke="#111" stroke-width="1.10" opacity="0.43"/><path d="M 526.1 77.3 Q 538.0 64.0 528.5 50.8" fill="none" stroke="#111" stroke-width="0.62" opacity="0.54"/><path d="M 300.3 106.9 Q 289.1 76.6 290.6 46.4" fill="none" stroke="#111" stroke-width="0.76" opacity="0.39"/><path d="M 264.0 177.9 Q 266.6 167.0 259.6 156.0" fill="none" stroke="#111" stroke-width="1.28" opacity="0.57"/><path d="M 695.1 314.3 Q 702.9 303.2 701.5 292.1" fill="none" stroke="#111" stroke-width="1.15" opacity="0.44"/><path d="M 716.1 355.9 Q 711.4 330.5 730.9 305.2" fill="none" stroke="#111" stroke-width="0.63" opacity="0.53"/><path d="M 286.1 115.8 Q 297.8 81.4 274.3 46.9" fill="none" stroke="#111" stroke-width="0.96" opacity="0.43"/><path d="M 392.8 46.3 Q 405.5 34.1 391.5 21.8" fill="none" stroke="#111" stroke-width="1.10" opacity="0.53"/><path d="M 596.1 154.1 Q 611.0 119.3 608.5 84.5" fill="none" stroke="#111" stroke-width="0.82" opacity="0.58"/><path d="M 165.0 363.7 Q 151.2 347.1 155.2 330.6" fill="none" stroke="#111" stroke-width="0.98" opacity="0.40"/><path d="M 558.2 94.5 Q 556.2 79.0 562.5 63.5" fill="none" stroke="#111" stroke-width="1.20" opacity="0.54"/><circle cx="182.6" cy="566.6" r="0.80" fill="#000" opacity="0.06"/><circle cx="173.2" cy="775.9" r="0.79" fill="#000" opacity="0.05"/><circle cx="566.9" cy="692.8" r="0.86" fill="#000" opacity="0.10"/><circle cx="952.1" cy="682.8" r="1.08" fill="#000" opacity="0.07"/><circle cx="260.2" cy="924.1" r="0.51" fill="#000" opacity="0.04"/><circle cx="130.9" cy="538.8" r="1.03" fill="#000" opacity="0.06"/><circle cx="954.4" cy="883.0" r="0.50" fill="#000" opacity="0.07"/><circle cx="591.6" cy="654.1" r="0.85" fill="#000" opacity="0.04"/><circle cx="697.3" cy="164.6" r="0.70" fill="#000" opacity="0.08"/><circle cx="108.5" cy="640.3" r="0.76" fill="#000" opacity="0.05"/><circle cx="758.2" cy="142.2" r="1.04" fill="#000" opacity="0.04"/><circle cx="807.6" cy="540.9" r="0.42" fill="#000" opacity="0.05"/><circle cx="966.8" cy="672.8" r="0.78" fill="#000" opacity="0.09"/><circle cx="159.7" cy="530.3" r="1.01" fill="#000" opacity="0.06"/><circle cx="441.7" cy="998.8" r="1.03" fill="#000" opacity="0.06"/><circle cx="934.8" cy="8.3" r="0.74" fill="#000" opacity="0.11"/><circle cx="719.0" cy="605.8" r="0.52" fill="#000" opacity="0.12"/><circle cx="562.8" cy="905.8" r="1.04" fill="#000" opacity="0.09"/><circle cx="482.3" cy="670.5" r="0.44" fill="#000" opacity="0.06"/><circle cx="973.0" cy="161.6" r="0.33" fill="#000" opacity="0.11"/><circle cx="500.2" cy="278.8" r="1.04" fill="#000" opacity="0.10"/><circle cx="449.8" cy="486.2" r="0.55" fill="#000" opacity="0.07"/><circle cx="670.8" cy="673.2" r="0.55" fill="#000" opacity="0.11"/><circle cx="75.2" cy="975.9" r="0.90" fill="#000" opacity="0.05"/><circle cx="701.4" cy="962.9" r="0.84" fill="#000" opacity="0.07"/><circle cx="827.6" cy="599.6" r="0.92" fill="#000" opacity="0.03"/><circle cx="437.3" cy="853.6" r="0.68" fill="#000" opacity="0.12"/><circle cx="518.8" cy="128.2" r="0.86" fill="#000" opacity="0.04"/><circle cx="241.5" cy="828.1" r="0.81" fill="#000" opacity="0.04"/><circle cx="28.2" cy="498.3" r="0.34" fill="#000" opacity="0.04"/><circle cx="447.5" cy="380.9" r="0.64" fill="#000" opacity="0.09"/><circle cx="286.5" cy="593.8" r="0.43" fill="#000" opacity="0.10"/><circle cx="794.5" cy="840.7" r="0.44" fill="#000" opacity="0.12"/><circle cx="756.8" cy="854.6" r="0.68" fill="#000" opacity="0.09"/><circle cx="76.1" cy="963.2" r="0.34" fill="#000" opacity="0.07"/><circle cx="202.3" cy="994.3" r="0.75" fill="#000" opacity="0.07"/><circle cx="568.9" cy="733.2" r="0.35" fill="#000" opacity="0.06"/><circle cx="360.3" cy="623.2" r="0.37" fill="#000" opacity="0.09"/><circle cx="464.9" cy="689.0" r="0.63" fill="#000" opacity="0.04"/><circle cx="536.9" cy="70.6" r="0.61" fill="#000" opacity="0.04"/><circle cx="896.7" cy="612.0" r="0.59" fill="#000" opacity="0.05"/><circle cx="342.1" cy="288.5" r="0.96" fill="#000" opacity="0.08"/><circle cx="309.6" cy="246.5" r="0.87" fill="#000" opacity="0.05"/><circle cx="920.9" cy="712.1" r="0.79" fill="#000" opacity="0.04"/><circle cx="957.6" cy="393.1" r="0.84" fill="#000" opacity="0.11"/><circle cx="919.0" cy="261.5" r="1.06" fill="#000" opacity="0.03"/><circle cx="157.6" cy="707.4" r="0.82" fill="#000" opacity="0.11"/><circle cx="124.9" cy="261.9" r="0.44" fill="#000" opacity="0.06"/><circle cx="12.3" cy="482.6" r="1.00" fill="#000" opacity="0.11"/><circle cx="296.6" cy="413.9" r="0.44" fill="#000" opacity="0.08"/><circle cx="759.3" cy="688.5" r="0.36" fill="#000" opacity="0.06"/><circle cx="362.8" cy="452.4" r="1.03" fill="#000" opacity="0.05"/><circle cx="834.9" cy="260.0" r="0.95" fill="#000" opacity="0.11"/><circle cx="186.6" cy="733.3" r="1.10" fill="#000" opacity="0.11"/><circle cx="662.5" cy="864.9" r="0.72" fill="#000" opacity="0.07"/><circle cx="877.2" cy="307.3" r="0.59" fill="#000" opacity="0.12"/><circle cx="151.6" cy="505.9" r="0.81" fill="#000" opacity="0.05"/><circle cx="23.1" cy="797.1" r="0.84" fill="#000" opacity="0.09"/><circle cx="285.3" cy="653.1" r="0.70" fill="#000" opacity="0.11"/><circle cx="851.1" cy="921.1" r="0.53" fill="#000" opacity="0.04"/><circle cx="506.6" cy="836.6" r="0.60" fill="#000" opacity="0.10"/><circle cx="807.6" cy="237.0" r="0.44" fill="#000" opacity="0.11"/><circle cx="175.5" cy="281.6" r="0.47" fill="#000" opacity="0.08"/><circle cx="703.7" cy="795.4" r="0.33" fill="#000" opacity="0.11"/><circle cx="675.6" cy="354.5" r="0.61" fill="#000" opacity="0.06"/><circle cx="907.3" cy="847.9" r="0.72" fill="#000" opacity="0.11"/><circle cx="85.3" cy="84.3" r="0.57" fill="#000" opacity="0.06"/><circle cx="368.7" cy="506.0" r="0.90" fill="#000" opacity="0.07"/><circle cx="879.5" cy="774.1" r="1.01" fill="#000" opacity="0.05"/><circle cx="904.7" cy="735.8" r="0.53" fill="#000" opacity="0.10"/><circle cx="608.1" cy="468.8" r="0.50" fill="#000" opacity="0.04"/><circle cx="226.0" cy="984.9" r="1.05" fill="#000" opacity="0.07"/><circle cx="306.2" cy="578.1" r="0.77" fill="#000" opacity="0.09"/><circle cx="116.3" cy="534.1" r="0.95" fill="#000" opacity="0.09"/><circle cx="434.4" cy="262.8" r="1.00" fill="#000" opacity="0.06"/><circle cx="900.3" cy="858.4" r="1.00" fill="#000" opacity="0.05"/><circle cx="334.1" cy="574.9" r="1.08" fill="#000" opacity="0.08"/><circle cx="508.6" cy="856.9" r="0.52" fill="#000" opacity="0.08"/><circle cx="409.0" cy="714.6" r="0.59" fill="#000" opacity="0.05"/><circle cx="623.6" cy="577.0" r="0.73" fill="#000" opacity="0.11"/><circle cx="561.1" cy="935.2" r="0.66" fill="#000" opacity="0.08"/><circle cx="56.6" cy="97.6" r="0.63" fill="#000" opacity="0.11"/><circle cx="716.8" cy="949.2" r="0.96" fill="#000" opacity="0.04"/><circle cx="178.5" cy="676.9" r="0.93" fill="#000" opacity="0.05"/><circle cx="226.6" cy="446.5" r="1.02" fill="#000" opacity="0.10"/><circle cx="819.7" cy="729.0" r="0.76" fill="#000" opacity="0.09"/><circle cx="208.0" cy="3.2" r="0.64" fill="#000" opacity="0.11"/><circle cx="932.5" cy="651.8" r="0.69" fill="#000" opacity="0.03"/><circle cx="444.1" cy="681.5" r="0.90" fill="#000" opacity="0.03"/><circle cx="214.6" cy="165.2" r="1.01" fill="#000" opacity="0.03"/><circle cx="396.6" cy="803.6" r="0.80" fill="#000" opacity="0.06"/><circle cx="606.2" cy="561.3" r="0.48" fill="#000" opacity="0.05"/><circle cx="757.2" cy="906.8" r="1.05" fill="#000" opacity="0.08"/><circle cx="139.8" cy="670.2" r="0.53" fill="#000" opacity="0.03"/><circle cx="589.2" cy="950.5" r="0.39" fill="#000" opacity="0.07"/><circle cx="51.1" cy="241.5" r="0.44" fill="#000" opacity="0.06"/><circle cx="643.9" cy="905.8" r="1.04" fill="#000" opacity="0.10"/><circle cx="500.8" cy="99.7" r="0.49" fill="#000" opacity="0.07"/><circle cx="673.5" cy="805.6" r="0.99" fill="#000" opacity="0.10"/><circle cx="613.5" cy="131.6" r="0.97" fill="#000" opacity="0.06"/><circle cx="925.0" cy="982.8" r="0.80" fill="#000" opacity="0.04"/><circle cx="340.4" cy="867.8" r="0.49" fill="#000" opacity="0.12"/><circle cx="573.0" cy="125.8" r="0.73" fill="#000" opacity="0.04"/><circle cx="689.4" cy="974.9" r="0.50" fill="#000" opacity="0.05"/><circle cx="151.1" cy="571.4" r="0.71" fill="#000" opacity="0.10"/><circle cx="514.7" cy="802.6" r="0.82" fill="#000" opacity="0.09"/><circle cx="747.3" cy="933.9" r="0.99" fill="#000" opacity="0.11"/><circle cx="801.2" cy="176.9" r="0.36" fill="#000" opacity="0.11"/><circle cx="0.8" cy="233.0" r="0.97" fill="#000" opacity="0.04"/><circle cx="505.8" cy="166.3" r="0.74" fill="#000" opacity="0.04"/><circle cx="399.1" cy="788.6" r="0.69" fill="#000" opacity="0.11"/><circle cx="988.6" cy="95.8" r="0.83" fill="#000" opacity="0.08"/><circle cx="943.5" cy="487.6" r="0.34" fill="#000" opacity="0.05"/><circle cx="868.4" cy="417.5" r="0.80" fill="#000" opacity="0.07"/><circle cx="316.4" cy="122.9" r="1.03" fill="#000" opacity="0.06"/><circle cx="62.8" cy="742.2" r="1.01" fill="#000" opacity="0.04"/><circle cx="987.3" cy="435.1" r="0.56" fill="#000" opacity="0.10"/><circle cx="372.7" cy="729.3" r="0.40" fill="#000" opacity="0.05"/><circle cx="230.7" cy="430.9" r="0.98" fill="#000" opacity="0.04"/><circle cx="610.6" cy="506.1" r="0.58" fill="#000" opacity="0.08"/><circle cx="430.1" cy="141.3" r="0.71" fill="#000" opacity="0.03"/><circle cx="548.7" cy="483.8" r="1.05" fill="#000" opacity="0.08"/><circle cx="771.7" cy="275.5" r="0.52" fill="#000" opacity="0.08"/><circle cx="316.3" cy="103.3" r="0.68" fill="#000" opacity="0.08"/><circle cx="610.0" cy="115.2" r="0.50" fill="#000" opacity="0.11"/><circle cx="844.2" cy="430.7" r="0.50" fill="#000" opacity="0.12"/><circle cx="86.3" cy="846.9" r="0.91" fill="#000" opacity="0.07"/><circle cx="129.7" cy="373.2" r="0.42" fill="#000" opacity="0.06"/><circle cx="879.6" cy="690.4" r="0.63" fill="#000" opacity="0.10"/><circle cx="78.6" cy="545.9" r="0.32" fill="#000" opacity="0.05"/><circle cx="607.5" cy="886.9" r="0.67" fill="#000" opacity="0.11"/><circle cx="952.1" cy="863.6" r="0.77" fill="#000" opacity="0.04"/><circle cx="71.3" cy="490.6" r="1.10" fill="#000" opacity="0.11"/><circle cx="946.6" cy="748.6" r="0.55" fill="#000" opacity="0.07"/><circle cx="801.6" cy="575.7" r="0.44" fill="#000" opacity="0.12"/><circle cx="71.6" cy="659.2" r="0.60" fill="#000" opacity="0.08"/><circle cx="189.1" cy="984.4" r="1.03" fill="#000" opacity="0.06"/><circle cx="814.8" cy="631.6" r="0.72" fill="#000" opacity="0.06"/><circle cx="924.1" cy="158.7" r="0.90" fill="#000" opacity="0.09"/><circle cx="672.4" cy="313.6" r="1.01" fill="#000" opacity="0.12"/><circle cx="930.2" cy="864.1" r="0.82" fill="#000" opacity="0.11"/><circle cx="278.8" cy="481.0" r="0.81" fill="#000" opacity="0.11"/><circle cx="952.4" cy="847.9" r="0.97" fill="#000" opacity="0.11"/><circle cx="569.6" cy="664.3" r="1.05" fill="#000" opacity="0.05"/><circle cx="270.4" cy="558.4" r="0.64" fill="#000" opacity="0.05"/><circle cx="791.5" cy="977.1" r="0.51" fill="#000" opacity="0.03"/><circle cx="620.1" cy="637.8" r="0.48" fill="#000" opacity="0.06"/><circle cx="837.2" cy="97.0" r="1.06" fill="#000" opacity="0.11"/><circle cx="492.5" cy="279.9" r="0.91" fill="#000" opacity="0.05"/><circle cx="814.8" cy="479.3" r="0.45" fill="#000" opacity="0.09"/><circle cx="984.6" cy="143.2" r="0.36" fill="#000" opacity="0.09"/><circle cx="496.5" cy="111.0" r="0.71" fill="#000" opacity="0.04"/><circle cx="529.5" cy="431.4" r="0.83" fill="#000" opacity="0.09"/><circle cx="989.6" cy="441.7" r="0.80" fill="#000" opacity="0.04"/><circle cx="986.3" cy="65.7" r="1.01" fill="#000" opacity="0.07"/><circle cx="778.4" cy="972.6" r="0.32" fill="#000" opacity="0.11"/><circle cx="555.3" cy="171.0" r="0.60" fill="#000" opacity="0.09"/><circle cx="729.4" cy="536.9" r="0.85" fill="#000" opacity="0.07"/><circle cx="38.4" cy="919.8" r="0.78" fill="#000" opacity="0.11"/><circle cx="548.2" cy="864.0" r="0.82" fill="#000" opacity="0.07"/><circle cx="823.0" cy="171.0" r="0.34" fill="#000" opacity="0.08"/><circle cx="428.0" cy="920.9" r="0.90" fill="#000" opacity="0.11"/><circle cx="259.7" cy="554.8" r="0.54" fill="#000" opacity="0.04"/><circle cx="362.3" cy="594.7" r="0.68" fill="#000" opacity="0.08"/><circle cx="698.3" cy="596.0" r="0.63" fill="#000" opacity="0.10"/><circle cx="126.6" cy="836.5" r="0.42" fill="#000" opacity="0.05"/><circle cx="509.6" cy="804.4" r="0.88" fill="#000" opacity="0.05"/><circle cx="470.4" cy="942.2" r="0.40" fill="#000" opacity="0.09"/><circle cx="658.5" cy="728.4" r="0.61" fill="#000" opacity="0.09"/><circle cx="131.9" cy="65.4" r="0.49" fill="#000" opacity="0.05"/><circle cx="316.1" cy="822.5" r="0.35" fill="#000" opacity="0.09"/><circle cx="222.0" cy="33.6" r="0.72" fill="#000" opacity="0.04"/><circle cx="934.2" cy="49.6" r="1.02" fill="#000" opacity="0.04"/><circle cx="647.1" cy="590.0" r="0.81" fill="#000" opacity="0.04"/><circle cx="911.2" cy="273.2" r="0.33" fill="#000" opacity="0.03"/><circle cx="409.6" cy="843.5" r="0.42" fill="#000" opacity="0.06"/><circle cx="460.6" cy="635.3" r="0.56" fill="#000" opacity="0.04"/><circle cx="366.8" cy="580.3" r="0.86" fill="#000" opacity="0.07"/><circle cx="501.9" cy="983.9" r="0.73" fill="#000" opacity="0.10"/><circle cx="261.5" cy="528.6" r="0.39" fill="#000" opacity="0.09"/><circle cx="360.9" cy="929.6" r="0.74" fill="#000" opacity="0.07"/><circle cx="908.6" cy="361.1" r="0.35" fill="#000" opacity="0.03"/><circle cx="273.0" cy="850.7" r="0.79" fill="#000" opacity="0.03"/><circle cx="0.3" cy="751.3" r="0.44" fill="#000" opacity="0.08"/><circle cx="435.1" cy="834.9" r="0.40" fill="#000" opacity="0.11"/><circle cx="691.5" cy="417.3" r="0.93" fill="#000" opacity="0.04"/><circle cx="115.4" cy="970.0" r="0.71" fill="#000" opacity="0.09"/><circle cx="592.5" cy="807.1" r="0.57" fill="#000" opacity="0.08"/><circle cx="212.0" cy="386.3" r="0.86" fill="#000" opacity="0.04"/><circle cx="439.2" cy="719.3" r="0.91" fill="#000" opacity="0.05"/><circle cx="827.4" cy="702.7" r="0.55" fill="#000" opacity="0.12"/><circle cx="476.2" cy="267.8" r="0.77" fill="#000" opacity="0.09"/><circle cx="245.0" cy="154.2" r="1.02" fill="#000" opacity="0.12"/><circle cx="569.6" cy="296.8" r="0.87" fill="#000" opacity="0.10"/><circle cx="356.7" cy="200.0" r="0.69" fill="#000" opacity="0.03"/><circle cx="191.3" cy="364.8" r="0.61" fill="#000" opacity="0.11"/><circle cx="709.7" cy="541.3" r="0.74" fill="#000" opacity="0.09"/><circle cx="18.1" cy="30.1" r="0.58" fill="#000" opacity="0.05"/><circle cx="770.1" cy="252.2" r="1.08" fill="#000" opacity="0.10"/><circle cx="102.0" cy="766.4" r="0.41" fill="#000" opacity="0.10"/><circle cx="225.1" cy="835.4" r="0.38" fill="#000" opacity="0.08"/><circle cx="229.8" cy="581.8" r="0.48" fill="#000" opacity="0.09"/><circle cx="80.7" cy="37.5" r="0.93" fill="#000" opacity="0.10"/><circle cx="942.5" cy="514.9" r="0.58" fill="#000" opacity="0.05"/><circle cx="897.9" cy="358.8" r="0.95" fill="#000" opacity="0.09"/><circle cx="468.6" cy="791.3" r="0.68" fill="#000" opacity="0.10"/><circle cx="702.9" cy="790.2" r="1.08" fill="#000" opacity="0.06"/><circle cx="305.3" cy="710.6" r="0.80" fill="#000" opacity="0.05"/><circle cx="760.3" cy="711.5" r="0.92" fill="#000" opacity="0.10"/><circle cx="159.7" cy="457.0" r="0.47" fill="#000" opacity="0.05"/><circle cx="826.5" cy="887.5" r="0.53" fill="#000" opacity="0.09"/><circle cx="378.5" cy="964.4" r="0.79" fill="#000" opacity="0.04"/><circle cx="194.5" cy="56.4" r="0.73" fill="#000" opacity="0.09"/><circle cx="300.9" cy="561.3" r="0.86" fill="#000" opacity="0.05"/><circle cx="14.6" cy="235.4" r="0.71" fill="#000" opacity="0.03"/><circle cx="24.4" cy="187.3" r="0.95" fill="#000" opacity="0.08"/><circle cx="716.7" cy="824.7" r="1.01" fill="#000" opacity="0.05"/><circle cx="457.7" cy="798.9" r="0.42" fill="#000" opacity="0.08"/><circle cx="822.4" cy="919.2" r="0.80" fill="#000" opacity="0.09"/><circle cx="471.8" cy="465.7" r="0.33" fill="#000" opacity="0.06"/><circle cx="478.5" cy="914.6" r="0.88" fill="#000" opacity="0.08"/><circle cx="94.0" cy="457.0" r="0.99" fill="#000" opacity="0.06"/><circle cx="329.7" cy="848.6" r="0.44" fill="#000" opacity="0.11"/><circle cx="934.8" cy="821.3" r="0.98" fill="#000" opacity="0.10"/><circle cx="899.2" cy="277.2" r="0.81" fill="#000" opacity="0.04"/><circle cx="640.6" cy="342.6" r="0.94" fill="#000" opacity="0.11"/><circle cx="866.2" cy="425.2" r="1.08" fill="#000" opacity="0.04"/><circle cx="895.5" cy="958.9" r="0.89" fill="#000" opacity="0.10"/><circle cx="721.1" cy="123.2" r="0.75" fill="#000" opacity="0.04"/><circle cx="339.5" cy="536.3" r="0.93" fill="#000" opacity="0.07"/><circle cx="992.2" cy="496.9" r="0.56" fill="#000" opacity="0.04"/><circle cx="77.3" cy="747.5" r="0.80" fill="#000" opacity="0.11"/><circle cx="338.3" cy="919.4" r="0.37" fill="#000" opacity="0.12"/><circle cx="160.5" cy="306.0" r="0.72" fill="#000" opacity="0.08"/><circle cx="620.7" cy="795.7" r="0.57" fill="#000" opacity="0.04"/><circle cx="352.5" cy="226.4" r="0.63" fill="#000" opacity="0.04"/><circle cx="917.7" cy="944.5" r="0.65" fill="#000" opacity="0.07"/><circle cx="1.0" cy="314.2" r="0.84" fill="#000" opacity="0.11"/><circle cx="614.2" cy="319.0" r="0.55" fill="#000" opacity="0.08"/><circle cx="675.6" cy="425.6" r="0.75" fill="#000" opacity="0.07"/><circle cx="913.4" cy="17.2" r="0.78" fill="#000" opacity="0.11"/><circle cx="450.8" cy="660.7" r="0.83" fill="#000" opacity="0.05"/><circle cx="313.2" cy="814.2" r="0.95" fill="#000" opacity="0.06"/><circle cx="243.8" cy="511.4" r="0.60" fill="#000" opacity="0.04"/><circle cx="564.8" cy="866.1" r="0.51" fill="#000" opacity="0.09"/><circle cx="685.1" cy="703.6" r="0.43" fill="#000" opacity="0.08"/><circle cx="634.1" cy="238.5" r="0.77" fill="#000" opacity="0.03"/><circle cx="261.4" cy="129.3" r="0.66" fill="#000" opacity="0.11"/><circle cx="615.3" cy="134.0" r="0.60" fill="#000" opacity="0.06"/><circle cx="527.9" cy="905.0" r="0.65" fill="#000" opacity="0.10"/><rect x="0" y="0" width="1000" height="1000" fill="none" stroke="#111" stroke-opacity="0.06" stroke-width="1"/></svg>