<svg xmlns="http://www.w3.org/2000/svg" viewBox="0 0 1100 1100"><rect x="0" y="0" width="1100" height="1100" fill="#EDEBE4"/><path d="M 939.7 503.3 L 925.3 569.6 L 925.8 644.0 L 898.8 700.5 L 876.6 764.5 L 845.7 825.9 L 805.7 870.2 L 761.2 898.4 L 717.7 934.8 L 667.4 948.3 L 615.8 960.4 L 565.6 936.6 L 515.4 938.3 L 468.3 896.3 L 426.0 866.8 L 387.1 824.9 L 359.1 765.8 L 321.2 710.0 L 311.8 641.1 L 288.3 574.7 L 294.4 503.3 L 296.0 432.9 L 308.4 364.1 L 327.2 299.3 L 362.7 245.2 L 385.9 180.1 L 419.0 136.7 L 465.8 94.9 L 516.9 82.1 L 566.8 76.3 L 615.8 48.8 L 666.0 62.2 L 714.4 91.4 L 759.4 109.0 L 802.2 154.7 L 848.6 176.4 L 872.4 245.2 L 911.6 299.0 L 930.2 364.9 L 939.3 432.8 L 930.0 503.3 Z" fill="none" stroke="#111" stroke-width="1.62" opacity="0.88"/><line x1="664.4" y1="101.0" x2="747.5" y2="99.7" stroke="#111" stroke-width="0.7" opacity="0.06"/><line x1="664.4" y1="133.1" x2="781.2" y2="132.5" stroke="#111" stroke-width="0.7" opacity="0.09"/><line x1="664.4" y1="165.3" x2="775.1" y2="165.8" stroke="#111" stroke-width="0.7" opacity="0.11"/><line x1="664.4" y1="197.5" x2="793.6" y2="195.7" stroke="#111" stroke-width="0.7" opacity="0.13"/><line x1="664.4" y1="229.7" x2="822.1" y2="232.3" stroke="#111" stroke-width="0.7" opacity="0.16"/><line x1="664.4" y1="261.9" x2="854.3" y2="263.5" stroke="#111" stroke-width="0.7" opacity="0.18"/><line x1="664.4" y1="294.1" x2="848.0" y2="294.2" stroke="#111" stroke-width="0.7" opacity="0.20"/><line x1="664.4" y1="326.3" x2="845.3" y2="328.8" stroke="#111" stroke-width="0.7" opacity="0.21"/><line x1="664.4" y1="358.4" x2="887.1" y2="359.9" stroke="#111" stroke-width="0.7" opacity="0.23"/><line x1="664.4" y1="390.6" x2="889.1" y2="392.0" stroke="#111" stroke-width="0.7" opacity="0.24"/><line x1="664.4" y1="422.8" x2="896.9" y2="422.0" stroke="#111" stroke-width="0.7" opacity="0.25"/><line x1="664.4" y1="455.0" x2="887.9" y2="454.4" stroke="#111" stroke-width="0.7" opacity="0.26"/><line x1="664.4" y1="487.2" x2="904.8" y2="487.0" stroke="#111" stroke-width="0.7" opacity="0.26"/><line x1="664.4" y1="519.4" x2="908.6" y2="520.6" stroke="#111" stroke-width="0.7" opacity="0.26"/><line x1="664.4" y1="551.5" x2="882.7" y2="554.5" stroke="#111" stroke-width="0.7" opacity="0.26"/><line x1="664.4" y1="583.7" x2="882.1" y2="586.5" stroke="#111" stroke-width="0.7" opacity="0.25"/><line x1="664.4" y1="615.9" x2="866.4" y2="616.4" stroke="#111" stroke-width="0.7" opacity="0.24"/><line x1="664.4" y1="648.1" x2="872.4" y2="647.9" stroke="#111" stroke-width="0.7" opacity="0.23"/><line x1="664.4" y1="680.3" x2="855.2" y2="680.6" stroke="#111" stroke-width="0.7" opacity="0.21"/><line x1="664.4" y1="712.5" x2="836.4" y2="713.2" stroke="#111" stroke-width="0.7" opacity="0.20"/><line x1="664.4" y1="744.6" x2="838.6" y2="743.8" stroke="#111" stroke-width="0.7" opacity="0.18"/><line x1="664.4" y1="776.8" x2="831.5" y2="773.8" stroke="#111" stroke-width="0.7" opacity="0.16"/><line x1="664.4" y1="809.0" x2="814.2" y2="811.0" stroke="#111" stroke-width="0.7" opacity="0.13"/><line x1="664.4" y1="841.2" x2="800.9" y2="842.0" stroke="#111" stroke-width="0.7" opacity="0.11"/><line x1="664.4" y1="873.4" x2="775.9" y2="872.2" stroke="#111" stroke-width="0.7" opacity="0.09"/><line x1="664.4" y1="905.6" x2="754.5" y2="906.2" stroke="#111" stroke-width="0.7" opacity="0.06"/><line x1="648.2" y1="190.4" x2="740.0" y2="208.4" stroke="#111" stroke-width="0.5" opacity="0.12"/><line x1="648.2" y1="229.8" x2="737.2" y2="247.8" stroke="#111" stroke-width="0.5" opacity="0.12"/><line x1="648.2" y1="269.2" x2="770.1" y2="287.2" stroke="#111" stroke-width="0.5" opacity="0.12"/><line x1="648.2" y1="308.7" x2="743.8" y2="326.7" stroke="#111" stroke-width="0.5" opacity="0.12"/><line x1="648.2" y1="348.1" x2="737.7" y2="366.1" stroke="#111" stroke-width="0.5" opacity="0.12"/><line x1="648.2" y1="387.6" x2="736.2" y2="405.6" stroke="#111" stroke-width="0.5" opacity="0.12"/><line x1="648.2" y1="427.0" x2="753.9" y2="445.0" stroke="#111" stroke-width="0.5" opacity="0.12"/><line x1="648.2" y1="466.4" x2="742.5" y2="484.4" stroke="#111" stroke-width="0.5" opacity="0.12"/><line x1="648.2" y1="505.9" x2="727.1" y2="523.9" stroke="#111" stroke-width="0.5" opacity="0.12"/><line x1="648.2" y1="545.3" x2="761.9" y2="563.3" stroke="#111" stroke-width="0.5" opacity="0.12"/><line x1="648.2" y1="584.8" x2="724.5" y2="602.8" stroke="#111" stroke-width="0.5" opacity="0.12"/><line x1="648.2" y1="624.2" x2="734.7" y2="642.2" stroke="#111" stroke-width="0.5" opacity="0.12"/><line x1="648.2" y1="663.7" x2="743.6" y2="681.7" stroke="#111" stroke-width="0.5" opacity="0.12"/><line x1="648.2" y1="703.1" x2="732.0" y2="721.1" stroke="#111" stroke-width="0.5" opacity="0.12"/><line x1="648.2" y1="742.5" x2="727.0" y2="760.5" stroke="#111" stroke-width="0.5" opacity="0.12"/><line x1="648.2" y1="782.0" x2="769.6" y2="800.0" stroke="#111" stroke-width="0.5" opacity="0.12"/><line x1="648.2" y1="821.4" x2="752.6" y2="839.4" stroke="#111" stroke-width="0.5" opacity="0.12"/><line x1="648.2" y1="860.9" x2="755.4" y2="878.9" stroke="#111" stroke-width="0.5" opacity="0.12"/><path d="M 421.5 838.5 Q 615.8 1173.8 793.9 860.9" fill="none" stroke="#111" stroke-width="1.1" opacity="0.5"/><ellipse cx="512.2" cy="480.9" rx="42.1" ry="22.3" fill="none" stroke="#111" stroke-width="1" opacity="0.7"/><circle cx="510.2" cy="480.9" r="12.5" fill="#111" opacity="0.85"/><line x1="564.0" y1="427.3" x2="496.0" y2="413.9" stroke="#111" stroke-width="1.6" opacity="0.55"/><ellipse cx="719.4" cy="480.9" rx="42.1" ry="22.3" fill="none" stroke="#111" stroke-width="1" opacity="0.7"/><circle cx="721.4" cy="480.9" r="12.5" fill="#111" opacity="0.85"/><line x1="667.6" y1="427.3" x2="735.6" y2="413.9" stroke="#111" stroke-width="1.6" opacity="0.55"/><path d="M 612.8 503.3 Q 589.9 637.4 641.7 673.1" fill="none" stroke="#111" stroke-width="0.9" opacity="0.4"/><path d="M 544.6 762.5 Q 615.8 769.6 687.1 762.5" fill="none" stroke="#111" stroke-width="1.3" opacity="0.6"/><path d="M 529.7 118.6 Q 535.2 83.6 524.0 48.7" fill="none" stroke="#111" stroke-width="0.62" opacity="0.43"/><path d="M 586.7 81.6 Q 587.1 60.7 585.5 39.8" fill="none" stroke="#111" stroke-width="1.10" opacity="0.35"/><path d="M 895.7 365.1 Q 885.8 330.8 915.1 296.5" fill="none" stroke="#111" stroke-width="0.88" opacity="0.35"/><path d="M 362.5 342.7 Q 360.1 315.8 347.9 288.9" fill="none" stroke="#111" stroke-width="0.61" opacity="0.49"/><path d="M 863.4 268.5 Q 860.0 250.9 872.1 233.3" fill="none" stroke="#111" stroke-width="1.02" opacity="0.56"/><path d="M 476.9 135.2 Q 486.8 106.5 468.9 77.9" fill="none" stroke="#111" stroke-width="0.74" opacity="0.50"/><path d="M 874.7 320.9 Q 871.3 294.7 888.9 268.4" fill="none" stroke="#111" stroke-width="1.28" opacity="0.46"/><path d="M 346.7 403.3 Q 357.9 374.9 330.2 346.5" fill="none" stroke="#111" stroke-width="1.20" opacity="0.41"/><path d="M 899.3 426.0 Q 909.9 408.2 909.8 390.4" fill="none" stroke="#111" stroke-width="1.01" opacity="0.38"/><path d="M 575.6 95.1 Q 589.1 65.0 573.1 34.8" fill="none" stroke="#111" stroke-width="0.91" opacity="0.42"/><path d="M 793.6 184.3 Q 783.5 161.6 801.6 138.8" fill="none" stroke="#111" stroke-width="0.91" opacity="0.57"/><path d="M 812.7 211.1 Q 820.7 186.3 822.5 161.5" fill="none" stroke="#111" stroke-width="0.68" opacity="0.40"/><path d="M 875.2 294.5 Q 882.8 267.6 889.4 240.7" fill="none" stroke="#111" stroke-width="0.97" opacity="0.42"/><path d="M 518.4 81.6 Q 514.1 66.6 515.5 51.6" fill="none" stroke="#111" stroke-width="1.00" opacity="0.38"/><path d="M 433.1 201.7 Q 426.5 173.3 422.2 144.8" fill="none" stroke="#111" stroke-width="0.73" opacity="0.54"/><path d="M 793.0 201.8 Q 806.1 168.3 805.6 134.7" fill="none" stroke="#111" stroke-width="0.85" opacity="0.50"/><path d="M 722.3 140.6 Q 721.4 111.6 728.0 82.5" fill="none" stroke="#111" stroke-width="1.23" opacity="0.31"/><path d="M 342.6 425.1 Q 353.3 406.7 331.7 388.3" fill="none" stroke="#111" stroke-width="0.67" opacity="0.55"/><path d="M 771.2 167.9 Q 775.3 145.6 778.4 123.2" fill="none" stroke="#111" stroke-width="1.22" opacity="0.51"/><path d="M 790.1 136.7 Q 775.8 117.5 796.5 98.4" fill="none" stroke="#111" stroke-width="0.73" opacity="0.38"/><path d="M 865.6 334.2 Q 876.9 314.0 876.6 293.7" fill="none" stroke="#111" stroke-width="1.23" opacity="0.58"/><path d="M 870.5 307.3 Q 869.7 285.0 882.2 262.8" fill="none" stroke="#111" stroke-width="1.14" opacity="0.58"/><path d="M 728.1 122.3 Q 735.6 95.8 734.1 69.2" fill="none" stroke="#111" stroke-width="0.62" opacity="0.48"/><path d="M 691.7 133.1 Q 691.5 121.5 693.3 110.0" fill="none" stroke="#111" stroke-width="0.72" opacity="0.59"/><path d="M 757.2 127.5 Q 742.4 99.4 765.8 71.3" fill="none" stroke="#111" stroke-width="0.66" opacity="0.51"/><path d="M 626.0 60.1 Q 620.4 48.6 626.2 37.1" fill="none" stroke="#111" stroke-width="1.00" opacity="0.58"/><path d="M 599.2 119.6 Q 609.7 87.9 598.2 56.2" fill="none" stroke="#111" stroke-width="0.83" opacity="0.46"/><path d="M 847.0 231.8 Q 832.5 197.1 863.2 162.4" fill="none" stroke="#111" stroke-width="0.86" opacity="0.34"/><path d="M 785.3 134.6 Q 791.0 115.7 791.4 96.9" fill="none" stroke="#111" stroke-width="0.79" opacity="0.31"/><path d="M 508.0 109.7 Q 499.1 97.1 505.4 84.6" fill="none" stroke="#111" stroke-width="0.64" opacity="0.52"/><circle cx="530.0" cy="640.2" r="1.03" fill="#000" opacity="0.04"/><circle cx="397.7" cy="243.8" r="0.34" fill="#000" opacity="0.03"/><circle cx="795.9" cy="743.2" r="0.73" fill="#000" opacity="0.05"/><circle cx="756.3" cy="723.9" r="0.94" fill="#000" opacity="0.06"/><circle cx="757.7" cy="635.5" r="0.61" fill="#000" opacity="0.09"/><circle cx="242.6" cy="1036.0" r="0.52" fill="#000" opacity="0.09"/><circle cx="223.1" cy="184.9" r="0.79" fill="#000" opacity="0.12"/><circle cx="133.0" cy="516.4" r="0.92" fill="#000" opacity="0.12"/><circle cx="431.5" cy="807.5" r="0.92" fill="#000" opacity="0.08"/><circle cx="744.0" cy="24.0" r="0.30" fill="#000" opacity="0.12"/><circle cx="528.9" cy="697.0" r="0.48" fill="#000" opacity="0.08"/><circle cx="658.2" cy="733.8" r="0.79" fill="#000" opacity="0.11"/><circle cx="284.0" cy="875.3" r="0.87" fill="#000" opacity="0.09"/><circle cx="840.4" cy="485.8" r="0.62" fill="#000" opacity="0.09"/><circle cx="11.0" cy="865.1" r="0.90" fill="#000" opacity="0.06"/><circle cx="817.1" cy="373.6" r="0.81" fill="#000" opacity="0.08"/><circle cx="811.0" cy="565.5" r="0.95" fill="#000" opacity="0.07"/><circle cx="256.5" cy="954.5" r="0.84" fill="#000" opacity="0.11"/><circle cx="437.3" cy="352.8" r="0.62" fill="#000" opacity="0.05"/><circle cx="257.6" cy="442.8" r="0.36" fill="#000" opacity="0.06"/><circle cx="557.9" cy="949.2" r="0.78" fill="#000" opacity="0.10"/><circle cx="612.5" cy="121.1" r="0.37" fill="#000" opacity="0.09"/><circle cx="563.8" cy="929.4" r="1.01" fill="#000" opacity="0.07"/><circle cx="1063.3" cy="590.0" r="0.43" fill="#000" opacity="0.10"/><circle cx="113.4" cy="461.5" r="1.02" fill="#000" opacity="0.09"/><circle cx="7.9" cy="641.4" r="0.37" fill="#000" opacity="0.11"/><circle cx="1095.5" cy="964.1" r="0.76" fill="#000" opacity="0.05"/><circle cx="455.2" cy="930.0" r="0.68" fill="#000" opacity="0.12"/><circle cx="623.5" cy="774.8" r="0.90" fill="#000" opacity="0.10"/><circle cx="306.7" cy="758.5" r="0.37" fill="#000" opacity="0.09"/><circle cx="14.8" cy="929.6" r="1.03" fill="#000" opacity="0.06"/><circle cx="622.4" cy="848.3" r="0.58" fill="#000" opacity="0.05"/><circle cx="853.7" cy="828.4" r="0.47" fill="#000" opacity="0.11"/><circle cx="557.5" cy="624.7" r="0.33" fill="#000" opacity="0.08"/><circle cx="430.8" cy="1016.5" r="0.71" fill="#000" opacity="0.09"/><circle cx="179.4" cy="145.1" r="0.67" fill="#000" opacity="0.12"/><circle cx="584.4" cy="798.1" r="0.78" fill="#000" opacity="0.09"/><circle cx="244.3" cy="546.8" r="0.74" fill="#000" opacity="0.05"/><circle cx="433.2" cy="992.2" r="0.88" fill="#000" opacity="0.08"/><circle cx="787.6" cy="155.7" r="0.47" fill="#000" opacity="0.04"/><circle cx="473.0" cy="423.8" r="1.10" fill="#000" opacity="0.12"/><circle cx="401.5" cy="364.5" r="0.94" fill="#000" opacity="0.04"/><circle cx="310.3" cy="749.5" r="0.44" fill="#000" opacity="0.05"/><circle cx="165.4" cy="685.6" r="0.95" fill="#000" opacity="0.09"/><circle cx="1092.8" cy="694.4" r="0.35" fill="#000" opacity="0.11"/><circle cx="1043.1" cy="710.5" r="0.84" fill="#000" opacity="0.04"/><circle cx="1075.5" cy="546.8" r="0.94" fill="#000" opacity="0.10"/><circle cx="265.5" cy="64.5" r="0.87" fill="#000" opacity="0.07"/><circle cx="429.8" cy="861.3" r="0.63" fill="#000" opacity="0.10"/><circle cx="855.3" cy="733.2" r="0.54" fill="#000" opacity="0.09"/><circle cx="30.1" cy="813.1" r="0.80" fill="#000" opacity="0.09"/><circle cx="942.7" cy="758.4" r="0.96" fill="#000" opacity="0.11"/><circle cx="29.0" cy="441.3" r="0.46" fill="#000" opacity="0.09"/><circle cx="469.3" cy="630.3" r="0.66" fill="#000" opacity="0.10"/><circle cx="919.8" cy="646.3" r="0.76" fill="#000" opacity="0.09"/><circle cx="44.5" cy="747.7" r="0.82" fill="#000" opacity="0.04"/><circle cx="408.1" cy="524.0" r="0.67" fill="#000" opacity="0.09"/><circle cx="707.9" cy="948.7" r="0.91" fill="#000" opacity="0.09"/><circle cx="1024.2" cy="302.1" r="0.85" fill="#000" opacity="0.04"/><circle cx="544.6" cy="69.9" r="1.00" fill="#000" opacity="0.11"/><circle cx="508.0" cy="79.2" r="1.09" fill="#000" opacity="0.06"/><circle cx="582.0" cy="417.2" r="0.37" fill="#000" opacity="0.04"/><circle cx="220.3" cy="834.4" r="0.47" fill="#000" opacity="0.03"/><circle cx="838.0" cy="922.3" r="0.91" fill="#000" opacity="0.10"/><circle cx="310.6" cy="26.2" r="0.32" fill="#000" opacity="0.05"/><circle cx="886.9" cy="1048.2" r="0.89" fill="#000" opacity="0.07"/><circle cx="830.7" cy="288.4" r="0.79" fill="#000" opacity="0.08"/><circle cx="489.2" cy="931.2" r="0.65" fill="#000" opacity="0.05"/><circle cx="23.3" cy="1025.5" r="0.78" fill="#000" opacity="0.04"/><circle cx="620.4" cy="852.0" r="0.66" fill="#000" opacity="0.09"/><circle cx="740.6" cy="992.1" r="0.85" fill="#000" opacity="0.09"/><circle cx="688.9" cy="181.4" r="1.07" fill="#000" opacity="0.05"/><circle cx="995.3" cy="795.3" r="0.69" fill="#000" opacity="0.08"/><circle cx="754.8" cy="67.5" r="0.38" fill="#000" opacity="0.09"/><circle cx="271.1" cy="402.0" r="0.71" fill="#000" opacity="0.11"/><circle cx="476.7" cy="572.9" r="0.34" fill="#000" opacity="0.11"/><circle cx="881.0" cy="738.6" r="0.36" fill="#000" opacity="0.04"/><circle cx="532.1" cy="127.4" r="1.05" fill="#000" opacity="0.06"/><circle cx="675.4" cy="187.9" r="0.68" fill="#000" opacity="0.07"/><circle cx="720.7" cy="788.2" r="0.36" fill="#000" opacity="0.10"/><circle cx="700.6" cy="30.7" r="0.42" fill="#000" opacity="0.08"/><circle cx="707.0" cy="82.7" r="0.59" fill="#000" opacity="0.08"/><circle cx="768.8" cy="494.9" r="0.56" fill="#000" opacity="0.07"/><circle cx="81.1" cy="866.7" r="0.41" fill="#000" opacity="0.10"/><circle cx="1050.4" cy="136.3" r="0.38" fill="#000" opacity="0.04"/><circle cx="3.1" cy="172.6" r="0.37" fill="#000" opacity="0.03"/><circle cx="869.2" cy="838.4" r="0.53" fill="#000" opacity="0.08"/><circle cx="171.6" cy="105.4" r="0.69" fill="#000" opacity="0.09"/><circle cx="623.9" cy="31.4" r="0.85" fill="#000" opacity="0.06"/><circle cx="278.7" cy="992.7" r="0.33" fill="#000" opacity="0.06"/><circle cx="248.5" cy="896.8" r="0.52" fill="#000" opacity="0.04"/><circle cx="547.8" cy="283.0" r="0.81" fill="#000" opacity="0.08"/><circle cx="248.4" cy="739.4" r="0.80" fill="#000" opacity="0.03"/><circle cx="513.0" cy="322.5" r="0.66" fill="#000" opacity="0.04"/><circle cx="847.4" cy="318.1" r="0.98" fill="#000" opacity="0.08"/><circle cx="655.0" cy="44.0" r="0.66" fill="#000" opacity="0.10"/><circle cx="672.0" cy="1095.5" r="0.46" fill="#000" opacity="0.10"/><circle cx="547.8" cy="918.8" r="0.40" fill="#000" opacity="0.11"/><circle cx="502.5" cy="713.7" r="1.03" fill="#000" opacity="0.12"/><circle cx="585.2" cy="605.4" r="0.82" fill="#000" opacity="0.05"/><circle cx="45.6" cy="878.1" r="1.08" fill="#000" opacity="0.10"/><circle cx="680.1" cy="335.9" r="0.33" fill="#000" opacity="0.06"/><circle cx="762.2" cy="573.5" r="0.44" fill="#000" opacity="0.11"/><circle cx="466.0" cy="456.2" r="0.67" fill="#000" opacity="0.12"/><circle cx="792.4" cy="771.8" r="0.98" fill="#000" opacity="0.12"/><circle cx="1072.9" cy="388.8" r="0.50" fill="#000" opacity="0.10"/><circle cx="54.5" cy="399.5" r="0.66" fill="#000" opacity="0.05"/><circle cx="600.2" cy="49.8" r="0.93" fill="#000" opacity="0.07"/><circle cx="92.7" cy="77.9" r="0.34" fill="#000" opacity="0.09"/><circle cx="791.5" cy="534.9" r="0.42" fill="#000" opacity="0.04"/><circle cx="1005.8" cy="103.7" r="1.09" fill="#000" opacity="0.10"/><circle cx="227.4" cy="395.6" r="0.54" fill="#000" opacity="0.11"/><circle cx="483.4" cy="1068.8" r="0.73" fill="#000" opacity="0.12"/><circle cx="277.3" cy="412.6" r="0.58" fill="#000" opacity="0.11"/><circle cx="492.1" cy="671.1" r="0.67" fill="#000" opacity="0.11"/><circle cx="543.7" cy="650.3" r="0.77" fill="#000" opacity="0.09"/><circle cx="72.0" cy="508.3" r="0.87" fill="#000" opacity="0.03"/><circle cx="141.8" cy="974.6" r="0.31" fill="#000" opacity="0.09"/><circle cx="6.7" cy="381.5" r="0.99" fill="#000" opacity="0.10"/><circle cx="118.7" cy="676.3" r="0.67" fill="#000" opacity="0.11"/><circle cx="457.4" cy="790.9" r="0.75" fill="#000" opacity="0.05"/><circle cx="423.3" cy="398.0" r="0.92" fill="#000" opacity="0.06"/><circle cx="1002.4" cy="468.0" r="0.90" fill="#000" opacity="0.09"/><circle cx="871.3" cy="4.3" r="0.74" fill="#000" opacity="0.07"/><circle cx="535.8" cy="605.8" r="0.61" fill="#000" opacity="0.08"/><circle cx="485.5" cy="236.5" r="0.97" fill="#000" opacity="0.06"/><circle cx="996.9" cy="44.4" r="1.03" fill="#000" opacity="0.04"/><circle cx="758.3" cy="210.2" r="0.39" fill="#000" opacity="0.06"/><circle cx="914.0" cy="761.3" r="0.79" fill="#000" opacity="0.09"/><circle cx="844.3" cy="502.8" r="0.42" fill="#000" opacity="0.03"/><circle cx="480.7" cy="864.5" r="0.52" fill="#000" opacity="0.06"/><circle cx="878.9" cy="1037.5" r="0.47" fill="#000" opacity="0.09"/><circle cx="152.8" cy="888.1" r="0.44" fill="#000" opacity="0.07"/><circle cx="680.7" cy="1081.9" r="0.64" fill="#000" opacity="0.06"/><circle cx="995.1" cy="93.6" r="0.86" fill="#000" opacity="0.04"/><circle cx="386.0" cy="1099.8" r="0.68" fill="#000" opacity="0.06"/><circle cx="317.4" cy="760.2" r="0.75" fill="#000" opacity="0.05"/><circle cx="1031.8" cy="775.6" r="0.34" fill="#000" opacity="0.05"/><circle cx="258.9" cy="792.0" r="0.32" fill="#000" opacity="0.03"/><circle cx="1014.9" cy="444.5" r="0.45" fill="#000" opacity="0.09"/><circle cx="1009.6" cy="802.9" r="0.78" fill="#000" opacity="0.05"/><circle cx="822.1" cy="12.2" r="0.42" fill="#000" opacity="0.08"/><circle cx="932.4" cy="315.4" r="0.56" fill="#000" opacity="0.06"/><circle cx="355.9" cy="470.7" r="0.67" fill="#000" opacity="0.10"/><circle cx="89.1" cy="162.4" r="0.67" fill="#000" opacity="0.09"/><circle cx="442.9" cy="600.4" r="0.83" fill="#000" opacity="0.03"/><circle cx="152.8" cy="1062.1" r="0.63" fill="#000" opacity="0.11"/><circle cx="401.8" cy="1049.4" r="0.60" fill="#000" opacity="0.05"/><circle cx="207.9" cy="795.7" r="0.50" fill="#000" opacity="0.05"/><circle cx="797.4" cy="858.3" r="0.93" fill="#000" opacity="0.10"/><circle cx="955.9" cy="649.1" r="0.46" fill="#000" opacity="0.05"/><circle cx="583.5" cy="897.4" r="0.34" fill="#000" opacity="0.07"/><circle cx="58.2" cy="385.9" r="0.39" fill="#000" opacity="0.08"/><circle cx="710.5" cy="201.0" r="0.78" fill="#000" opacity="0.09"/><circle cx="667.0" cy="738.7" r="0.72" fill="#000" opacity="0.08"/><circle cx="535.3" cy="884.2" r="0.59" fill="#000" opacity="0.04"/><circle cx="842.6" cy="150.8" r="0.86" fill="#000" opacity="0.06"/><circle cx="575.7" cy="201.2" r="0.58" fill="#000" opacity="0.07"/><circle cx="714.9" cy="900.6" r="0.78" fill="#000" opacity="0.08"/><circle cx="332.9" cy="606.3" r="0.55" fill="#000" opacity="0.07"/><circle cx="227.5" cy="678.3" r="0.66" fill="#000" opacity="0.04"/><circle cx="1069.1" cy="882.9" r="0.39" fill="#000" opacity="0.04"/><circle cx="75.2" cy="1009.2" r="0.44" fill="#000" opacity="0.09"/><circle cx="590.3" cy="1070.3" r="1.06" fill="#000" opacity="0.12"/><circle cx="155.7" cy="794.4" r="0.95" fill="#000" opacity="0.03"/><circle cx="129.1" cy="409.2" r="0.90" fill="#000" opacity="0.11"/><circle cx="782.9" cy="669.4" r="0.37" fill="#000" opacity="0.11"/><circle cx="353.4" cy="385.6" r="0.37" fill="#000" opacity="0.08"/><circle cx="692.9" cy="499.4" r="0.74" fill="#000" opacity="0.06"/><circle cx="13.2" cy="299.0" r="1.01" fill="#000" opacity="0.08"/><circle cx="394.7" cy="274.6" r="1.09" fill="#000" opacity="0.08"/><circle cx="665.2" cy="215.5" r="0.96" fill="#000" opacity="0.09"/><circle cx="820.9" cy="854.4" r="0.71" fill="#000" opacity="0.04"/><circle cx="756.0" cy="382.4" r="0.96" fill="#000" opacity="0.10"/><circle cx="395.5" cy="276.4" r="0.84" fill="#000" opacity="0.05"/><circle cx="249.2" cy="24.4" r="0.78" fill="#000" opacity="0.08"/><circle cx="1018.0" cy="167.4" r="0.59" fill="#000" opacity="0.05"/><circle cx="90.0" cy="373.5" r="0.33" fill="#000" opacity="0.05"/><circle cx="404.3" cy="4.8" r="0.93" fill="#000" opacity="0.07"/><circle cx="307.6" cy="858.2" r="0.58" fill="#000" opacity="0.11"/><circle cx="185.1" cy="717.9" r="0.34" fill="#000" opacity="0.04"/><circle cx="495.8" cy="1079.7" r="0.31" fill="#000" opacity="0.11"/><circle cx="225.4" cy="841.3" r="0.39" fill="#000" opacity="0.05"/><circle cx="509.9" cy="909.7" r="1.00" fill="#000" opacity="0.09"/><circle cx="244.1" cy="760.9" r="0.70" fill="#000" opacity="0.10"/><circle cx="120.0" cy="778.5" r="0.91" fill="#000" opacity="0.06"/><circle cx="485.6" cy="132.0" r="1.08" fill="#000" opacity="0.06"/><circle cx="821.6" cy="202.7" r="0.60" fill="#000" opacity="0.08"/><circle cx="936.3" cy="107.8" r="0.64" fill="#000" opacity="0.06"/><circle cx="904.2" cy="918.2" r="1.06" fill="#000" opacity="0.05"/><circle cx="912.7" cy="23.3" r="0.82" fill="#000" opacity="0.06"/><circle cx="80.4" cy="474.7" r="0.35" fill="#000" opacity="0.03"/><circle cx="66.3" cy="485.9" r="0.71" fill="#000" opacity="0.05"/><circle cx="844.1" cy="1070.2" r="0.99" fill="#000" opacity="0.06"/><circle cx="829.6" cy="574.1" r="0.37" fill="#000" opacity="0.10"/><circle cx="854.3" cy="447.9" r="1.03" fill="#000" opacity="0.11"/><circle cx="1073.0" cy="423.6" r="0.82" fill="#000" opacity="0.03"/><circle cx="851.4" cy="808.1" r="0.79" fill="#000" opacity="0.04"/><circle cx="641.5" cy="101.0" r="0.48" fill="#000" opacity="0.10"/><circle cx="464.9" cy="982.9" r="0.68" fill="#000" opacity="0.06"/><circle cx="695.2" cy="598.8" r="1.09" fill="#000" opacity="0.09"/><circle cx="911.5" cy="355.6" r="0.41" fill="#000" opacity="0.12"/><circle cx="820.2" cy="240.2" r="0.36" fill="#000" opacity="0.04"/><circle cx="765.4" cy="187.8" r="0.70" fill="#000" opacity="0.05"/><circle cx="577.3" cy="127.0" r="0.43" fill="#000" opacity="0.04"/><circle cx="769.0" cy="620.5" r="0.87" fill="#000" opacity="0.07"/><circle cx="803.6" cy="689.9" r="0.35" fill="#000" opacity="0.07"/><circle cx="181.6" cy="78.8" r="0.73" fill="#000" opacity="0.10"/><circle cx="276.8" cy="103.7" r="0.44" fill="#000" opacity="0.05"/><circle cx="416.6" cy="869.6" r="0.71" fill="#000" opacity="0.12"/><circle cx="41.1" cy="576.5" r="0.37" fill="#000" opacity="0.04"/><circle cx="881.9" cy="88.0" r="0.72" fill="#000" opacity="0.12"/><circle cx="328.5" cy="939.7" r="0.64" fill="#000" opacity="0.10"/><circle cx="308.7" cy="806.6" r="0.97" fill="#000" opacity="0.06"/><circle cx="141.9" cy="934.1" r="0.85" fill="#000" opacity="0.11"/><circle cx="157.8" cy="996.3" r="0.81" fill="#000" opacity="0.12"/><circle cx="411.3" cy="344.7" r="0.53" fill="#000" opacity="0.06"/><circle cx="856.6" cy="850.2" r="0.83" fill="#000" opacity="0.07"/><circle cx="136.4" cy="988.3" r="0.67" fill="#000" opacity="0.11"/><circle cx="178.9" cy="9.8" r="0.43" fill="#000" opacity="0.12"/><circle cx="354.5" cy="231.0" r="0.75" fill="#000" opacity="0.06"/><circle cx="218.2" cy="87.1" r="0.38" fill="#000" opacity="0.10"/><circle cx="275.1" cy="116.5" r="0.77" fill="#000" opacity="0.12"/><circle cx="845.2" cy="176.7" r="0.34" fill="#000" opacity="0.04"/><circle cx="285.7" cy="77.5" r="0.96" fill="#000" opacity="0.06"/><circle cx="409.5" cy="199.7" r="0.55" fill="#000" opacity="0.06"/><circle cx="807.6" cy="11.1" r="0.34" fill="#000" opacity="0.04"/><circle cx="894.5" cy="816.9" r="0.65" fill="#000" opacity="0.10"/><circle cx="728.9" cy="370.6" r="0.90" fill="#000" opacity="0.04"/><circle cx="422.0" cy="579.9" r="0.81" fill="#000" opacity="0.10"/><circle cx="767.3" cy="594.4" r="1.02" fill="#000" opacity="0.06"/><circle cx="1028.8" cy="588.6" r="0.55" fill="#000" opacity="0.05"/><circle cx="175.3" cy="376.2" r="0.58" fill="#000" opacity="0.10"/><circle cx="377.9" cy="18.0" r="0.94" fill="#000" opacity="0.10"/><circle cx="440.3" cy="1028.4" r="0.50" fill="#000" opacity="0.05"/><circle cx="99.0" cy="989.8" r="0.91" fill="#000" opacity="0.11"/><circle cx="771.6" cy="1028.8" r="0.76" fill="#000" opacity="0.08"/><circle cx="670.4" cy="37.2" r="0.32" fill="#000" opacity="0.11"/><circle cx="47.2" cy="730.5" r="0.88" fill="#000" opacity="0.04"/><circle cx="168.3" cy="150.7" r="0.56" fill="#000" opacity="0.07"/><circle cx="116.1" cy="193.9" r="0.31" fill="#000" opacity="0.07"/><circle cx="579.1" cy="429.6" r="0.67" fill="#000" opacity="0.09"/><circle cx="975.6" cy="603.6" r="0.57" fill="#000" opacity="0.12"/><circle cx="20.0" cy="21.4" r="0.98" fill="#000" opacity="0.03"/><circle cx="798.7" cy="498.1" r="0.99" fill="#000" opacity="0.05"/><circle cx="494.6" cy="134.1" r="0.88" fill="#000" opacity="0.03"/><circle cx="830.1" cy="211.0" r="0.42" fill="#000" opacity="0.07"/><circle cx="14.5" cy="793.2" r="0.77" fill="#000" opacity="0.09"/><circle cx="53.4" cy="734.6" r="0.58" fill="#000" opacity="0.08"/><circle cx="551.4" cy="941.1" r="0.94" fill="#000" opacity="0.09"/><rect x="0" y="0" width="1100" height="1100" fill="none" stroke="#111" stroke-opacity="0.06" stroke-width="1"/></svg>